<svg width="40" height="38" viewBox="0 0 40 38" fill="none" xmlns="http://www.w3.org/2000/svg">
<path d="M10.0685 37.99C7.03199 37.99 4.65972 36.9424 2.95169 34.8471C1.24366 32.6567 0.389648 29.4186 0.389648 25.1329C0.389648 20.6567 1.386 16.371 3.3787 12.2757C5.46629 8.18047 8.4079 4.13285 12.2035 0.132854C12.2984 0.0376115 12.4407 -0.0100098 12.6305 -0.0100098C12.9151 -0.0100098 13.1049 0.132848 13.1998 0.418564C13.3896 0.609038 13.437 0.847133 13.3422 1.13285C11.0648 4.18047 9.49914 7.13285 8.64513 9.98999C7.886 12.7519 7.50644 15.8471 7.50644 19.2757C7.50644 21.8471 7.83856 23.8471 8.50279 25.2757C9.16702 26.7043 10.0685 27.99 11.2071 29.1329L5.79841 30.1329C5.70352 28.5138 6.13053 27.2757 7.07943 26.4186C8.12323 25.5614 9.4517 25.1329 11.0648 25.1329C13.0575 25.1329 14.5757 25.7043 15.6195 26.8471C16.7582 27.99 17.3276 29.5614 17.3276 31.5614C17.3276 33.6567 16.6633 35.2757 15.3349 36.4186C14.1013 37.4662 12.3458 37.99 10.0685 37.99ZM31.9881 37.99C28.9516 37.99 26.5794 36.9424 24.8714 34.8471C23.2582 32.6567 22.4516 29.4186 22.4516 25.1329C22.4516 20.5614 23.448 16.2281 25.4407 12.1329C27.4334 8.03761 30.375 4.03761 34.2655 0.132854C34.3604 0.0376115 34.5027 -0.0100098 34.6925 -0.0100098C34.9772 -0.0100098 35.167 0.132848 35.2619 0.418564C35.4516 0.609038 35.4991 0.847133 35.4042 1.13285C33.1268 4.18047 31.5611 7.13285 30.7071 9.98999C29.948 12.7519 29.5684 15.8471 29.5684 19.2757C29.5684 21.8471 29.8531 23.8948 30.4224 25.4186C31.0868 26.8471 31.9881 28.0852 33.1269 29.1329L27.8604 30.1329C27.7655 28.5138 28.1925 27.2757 29.1414 26.4186C30.0903 25.5614 31.4188 25.1329 33.1269 25.1329C35.1195 25.1329 36.6378 25.7043 37.6816 26.8471C38.8203 27.99 39.3896 29.5614 39.3896 31.5614C39.3896 33.6567 38.7254 35.2757 37.3969 36.4186C36.1633 37.4662 34.3604 37.99 31.9881 37.99Z" fill="#1A1A1A"/>
</svg>
