<svg width="48" height="48" viewBox="0 0 48 48" fill="none" xmlns="http://www.w3.org/2000/svg">
<path d="M35.2136 17.3904H39.6011L36.0952 25.3658M26.9929 23.0119H21.9847C21.9847 23.0119 24.6363 18.2055 25.074 17.6686C25.5165 17.1257 25.9354 17.4643 25.9754 17.9432C26.0153 18.4221 25.9554 25.3658 25.9554 25.3658M20.6879 25.4254C20.6879 25.4254 16.8075 25.4742 16.6237 25.4129C16.44 25.3516 16.9184 25.028 19.4625 21.393C19.9376 20.7142 20.1991 20.1415 20.3103 19.6617L20.3498 19.3531C20.3498 18.2261 19.4361 17.3124 18.309 17.3124C17.3173 17.3124 16.4908 18.0198 16.3066 18.9576M32.4835 17.3904L29.2804 25.4438" stroke="#055EC7" stroke-width="1.17187" stroke-miterlimit="10" stroke-linecap="round" stroke-linejoin="round"/>
<path d="M2.28251 26.1486C1.19501 23.7022 0.517381 21.1258 0.746694 18.7022C0.803788 18.0994 1.08288 17.5392 1.51104 17.1111L5.04363 13.5785C6.05444 12.5677 7.72694 12.6894 8.58073 13.8359L12.5709 19.1402C12.777 19.4142 12.8759 19.754 12.849 20.0958C12.8222 20.4375 12.6714 20.7577 12.425 20.9961L9.84035 23.4974C9.68636 23.6465 9.58807 23.8437 9.56185 24.0564C9.53563 24.2691 9.58307 24.4844 9.69626 24.6663V24.6664C13.1363 30.1971 17.802 34.8628 23.3328 38.3029C23.5147 38.4161 23.73 38.4635 23.9426 38.4373C24.1553 38.411 24.3526 38.3128 24.5016 38.1588L27.0029 35.5741C27.2413 35.3278 27.5615 35.177 27.9033 35.1502C28.245 35.1233 28.5849 35.2222 28.8589 35.4283L34.1631 39.4184C35.3097 40.2722 35.4314 41.9447 34.4206 42.9555L30.888 46.4881C30.4441 46.9312 29.8585 47.2038 29.2338 47.2583C20.7204 48.008 10.3558 37.6435 10.3558 37.6435C10.3558 37.6435 6.58582 33.8735 3.75766 29.0133" stroke="#055EC7" stroke-width="1.17187" stroke-miterlimit="10" stroke-linecap="round" stroke-linejoin="round"/>
<path d="M14.9323 8.31565C21.8145 2.14634 32.4007 2.369 39.0154 8.98371C45.8607 15.829 45.8607 26.9272 39.0154 33.7724C37.1073 35.6805 34.8689 37.0567 32.4841 37.901M10.0771 15.5745C10.7123 13.7595 11.6438 12.0622 12.8338 10.5517" stroke="#055EC7" stroke-width="1.17187" stroke-miterlimit="10" stroke-linecap="round" stroke-linejoin="round"/>
<path d="M42.1802 7.76217C49.3011 15.8834 48.9878 28.2499 41.2402 35.9974C39.4054 37.8322 37.3115 39.2501 35.0763 40.251M7.76172 12.892C8.76184 10.6683 10.1751 8.58511 12.0016 6.75867C19.6605 -0.900233 31.8334 -1.29408 39.9566 5.57733" stroke="#055EC7" stroke-width="1.17187" stroke-miterlimit="10" stroke-linecap="round" stroke-linejoin="round"/>
</svg>
