<svg width="80" height="80" viewBox="0 0 80 80" fill="none" xmlns="http://www.w3.org/2000/svg">
<path d="M58.6913 28.984H66.0038L60.1606 42.2763M44.9902 38.3532H36.6431C36.6431 38.3532 41.0625 30.3426 41.7919 29.4478C42.5294 28.5429 43.2277 29.1073 43.2942 29.9054C43.3608 30.7035 43.2609 42.2763 43.2609 42.2763M34.4817 42.3757C34.4817 42.3757 28.0145 42.457 27.7081 42.3549C27.4019 42.2528 28.1992 41.7134 32.4394 35.6551C33.2313 34.5237 33.6672 33.5692 33.8525 32.7695L33.9183 32.2553C33.9183 30.3768 32.3955 28.854 30.517 28.854C28.8641 28.854 27.4866 30.0331 27.1797 31.596M54.1411 28.984L48.8027 42.4063" stroke="#055EC7" stroke-width="2.34375" stroke-miterlimit="10" stroke-linecap="round" stroke-linejoin="round"/>
<path d="M3.8058 43.5812C1.9933 39.5039 0.86393 35.2098 1.24612 31.1706C1.34127 30.1659 1.80643 29.2321 2.52002 28.5187L8.40768 22.631C10.0924 20.9464 12.8799 21.1492 14.3028 23.0601L20.9531 31.9006C21.2966 32.3572 21.4614 32.9235 21.4167 33.4931C21.3719 34.0627 21.1206 34.5964 20.71 34.9937L16.4022 39.1626C16.1456 39.411 15.9817 39.7398 15.938 40.0942C15.8943 40.4487 15.9734 40.8075 16.1621 41.1107V41.1109C21.8955 50.3287 29.6717 58.1049 38.8896 63.8384C39.1928 64.027 39.5516 64.106 39.906 64.0623C40.2605 64.0186 40.5893 63.8548 40.8377 63.5982L45.0064 59.2904C45.4038 58.8799 45.9375 58.6286 46.5071 58.5838C47.0767 58.539 47.6431 58.7039 48.0997 59.0473L56.9402 65.6976C58.8511 67.1206 59.0539 69.9081 57.3692 71.5928L51.4816 77.4804C50.7418 78.2188 49.7658 78.6732 48.7246 78.764C34.5356 80.0135 17.2613 62.7393 17.2613 62.7393C17.2613 62.7393 10.978 56.456 6.2644 48.3557" stroke="#055EC7" stroke-width="2.34375" stroke-miterlimit="10" stroke-linecap="round" stroke-linejoin="round"/>
<path d="M24.8888 13.8595C36.3591 3.57731 54.0028 3.94841 65.0273 14.9729C76.4361 26.3817 76.4361 44.8787 65.0273 56.2875C61.8472 59.4676 58.1164 61.7612 54.1417 63.1684M16.7969 25.9576C17.8554 22.9325 19.4079 20.1038 21.3912 17.5862" stroke="#055EC7" stroke-width="2.34375" stroke-miterlimit="10" stroke-linecap="round" stroke-linejoin="round"/>
<path d="M70.3016 12.937C82.1698 26.4723 81.6477 47.0832 68.735 59.9957C65.677 63.0537 62.1872 65.4168 58.4619 67.0849M12.9375 21.4866C14.6044 17.7805 16.9598 14.3085 20.0039 11.2645C32.7687 -1.50039 53.057 -2.1568 66.5956 9.29555" stroke="#055EC7" stroke-width="2.34375" stroke-miterlimit="10" stroke-linecap="round" stroke-linejoin="round"/>
</svg>
