<svg width="42" height="42" viewBox="0 0 42 42" fill="none" xmlns="http://www.w3.org/2000/svg">
<path d="M21.0013 42C17.3841 41.9999 13.8283 41.0656 10.6783 39.2874C7.52836 37.5092 4.89111 34.9476 3.02212 31.8506C1.15312 28.7537 0.115761 25.2265 0.0105476 21.6108C-0.0946693 17.9952 0.735832 14.4136 2.42158 11.2133C2.51697 11.0415 2.67596 10.914 2.86436 10.8582C3.05277 10.8025 3.25553 10.8229 3.42905 10.915C3.60258 11.0072 3.73301 11.1638 3.79229 11.3511C3.85157 11.5384 3.83498 11.7415 3.74607 11.9168C2.26966 14.7167 1.4991 17.8347 1.50132 21C2.57008 46.8653 39.4326 46.8653 40.5013 21C40.6813 6.5385 24.6013 -3.1545 11.9173 3.7455C11.8303 3.79165 11.7351 3.8202 11.637 3.82953C11.539 3.83886 11.44 3.82879 11.3459 3.79988C11.2517 3.77098 11.1642 3.72382 11.0882 3.66108C11.0123 3.59835 10.9495 3.52127 10.9033 3.43425C10.8572 3.34724 10.8286 3.25198 10.8193 3.15393C10.81 3.05588 10.82 2.95695 10.8489 2.86279C10.8778 2.76863 10.925 2.68109 10.9877 2.60516C11.0505 2.52923 11.1276 2.4664 11.2146 2.42025C14.2311 0.828803 17.5907 -0.00200714 21.0013 3.64127e-06C48.8563 1.15125 48.8563 40.8495 21.0013 42Z" fill="#055EC7"/>
<path d="M21.0016 15C20.3523 14.9996 19.7075 15.1073 19.0936 15.3187C18.9055 15.3835 18.6995 15.3709 18.5207 15.2837C18.3419 15.1965 18.2051 15.0418 18.1404 14.8538C17.8104 13.5285 20.1466 13.581 21.0016 13.5C30.9504 13.911 30.9496 28.089 21.0016 28.5C19.0132 28.4978 17.1068 27.7069 15.7007 26.3009C14.2947 24.8948 13.5038 22.9885 13.5016 21C13.5781 20.13 13.5279 17.8177 14.8486 18.1462C15.0365 18.211 15.191 18.3477 15.2782 18.5263C15.3654 18.7049 15.3781 18.9108 15.3136 19.0988C15.1047 19.7108 14.9993 20.3533 15.0016 21C15.3024 28.9478 26.7016 28.9478 27.0016 21C26.9996 19.4093 26.3668 17.8843 25.2421 16.7596C24.1173 15.6348 22.5923 15.002 21.0016 15Z" fill="#055EC7"/>
<path d="M13.8204 9.55125C13.7725 9.46508 13.7422 9.37033 13.731 9.27242C13.7198 9.17451 13.7281 9.07536 13.7552 8.98064C13.7824 8.88591 13.828 8.79746 13.8893 8.72035C13.9507 8.64325 14.0266 8.57899 14.1129 8.53125C16.2214 7.36424 18.5916 6.75137 21.0016 6.75C39.9031 7.5315 39.9031 34.4692 21.0016 35.25C18.5227 35.2515 16.0864 34.6059 13.9335 33.3771C11.7807 32.1484 9.98577 30.379 8.72638 28.2438C7.46698 26.1087 6.78667 23.6819 6.75273 21.2032C6.71879 18.7246 7.33239 16.28 8.53286 14.1113C8.62933 13.9372 8.79099 13.8086 8.98228 13.7538C9.17357 13.6989 9.37881 13.7223 9.55286 13.8187C9.72691 13.9152 9.8555 14.0769 9.91036 14.2682C9.96521 14.4595 9.94183 14.6647 9.84536 14.8387C5.09036 23.0828 11.4766 33.915 21.0016 33.75C24.382 33.7462 27.6228 32.4017 30.0131 30.0114C32.4033 27.6212 33.7478 24.3804 33.7516 21C33.9151 11.4757 23.0859 5.08875 14.8404 9.84375C14.7542 9.89176 14.6595 9.92228 14.5615 9.93356C14.4636 9.94484 14.3644 9.93666 14.2696 9.90948C14.1748 9.8823 14.0863 9.83666 14.0092 9.77518C13.9321 9.71371 13.8679 9.63761 13.8204 9.55125Z" fill="#055EC7"/>
<path d="M12.3584 7.42342L12.0832 11.0212L21.5317 20.4697C21.6683 20.6111 21.7439 20.8006 21.7422 20.9972C21.7405 21.1939 21.6616 21.382 21.5225 21.521C21.3835 21.6601 21.1954 21.739 20.9987 21.7407C20.8021 21.7424 20.6126 21.6668 20.4712 21.5302L11.0227 12.0817L7.4249 12.3569C7.31712 12.3651 7.20885 12.3499 7.10749 12.3124C7.00613 12.2749 6.91408 12.2159 6.83765 12.1394L1.37915 6.68092C1.27992 6.57867 1.21165 6.45043 1.18221 6.31101C1.15277 6.1716 1.16336 6.02671 1.21277 5.89306C1.26218 5.75942 1.34839 5.64248 1.46144 5.55575C1.57449 5.46902 1.70977 5.41603 1.85165 5.40292L5.15165 5.15017L5.4044 1.85017C5.41751 1.70829 5.4705 1.57301 5.55723 1.45996C5.64396 1.34691 5.7609 1.2607 5.89454 1.21129C6.02819 1.16188 6.17308 1.15129 6.31249 1.18073C6.45191 1.21017 6.58015 1.27844 6.6824 1.37767L12.1409 6.83617C12.2174 6.91254 12.2765 7.00458 12.314 7.10596C12.3516 7.20733 12.3667 7.31564 12.3584 7.42342ZM6.7754 3.59167C6.4754 7.08442 7.0664 6.46942 3.59315 6.77392L7.6544 10.8352L10.6102 10.6087L10.8366 7.65367L6.7754 3.59167Z" fill="#055EC7"/>
</svg>
