<svg width="80" height="80" viewBox="0 0 80 80" fill="none" xmlns="http://www.w3.org/2000/svg">
<path d="M40.0025 75C33.9739 74.9999 28.0474 73.4426 22.7975 70.479C17.5476 67.5154 13.1522 63.2459 10.0372 58.0844C6.9222 52.9228 5.19326 47.0442 5.0179 41.0181C4.84254 34.992 6.22672 29.0227 9.03629 23.6888C9.19528 23.4025 9.46027 23.19 9.77427 23.0971C10.0883 23.0041 10.4262 23.0381 10.7154 23.1917C11.0046 23.3453 11.222 23.6063 11.3208 23.9185C11.4196 24.2307 11.392 24.5692 11.2438 24.8613C8.78309 29.5278 7.49883 34.7245 7.50253 40C9.28378 83.1088 70.7213 83.1088 72.5025 40C72.8025 15.8975 46.0025 -0.257493 24.8625 11.2425C24.7175 11.3194 24.5588 11.367 24.3953 11.3825C24.2319 11.3981 24.067 11.3813 23.9101 11.3331C23.7532 11.285 23.6073 11.2064 23.4807 11.1018C23.3542 10.9972 23.2494 10.8688 23.1725 10.7238C23.0956 10.5787 23.048 10.42 23.0325 10.2566C23.0169 10.0931 23.0337 9.92825 23.0819 9.77132C23.1301 9.61439 23.2087 9.46848 23.3132 9.34193C23.4178 9.21538 23.5463 9.11066 23.6913 9.03376C28.7189 6.38134 34.3181 4.99665 40.0025 5.00001C86.4275 6.91876 86.4275 73.0825 40.0025 75Z" fill="#055EC7"/>
<path d="M40.003 30C38.9209 29.9993 37.8462 30.1788 36.823 30.5312C36.5096 30.6391 36.1661 30.6181 35.8681 30.4728C35.5702 30.3274 35.3422 30.0697 35.2343 29.7563C34.6843 27.5475 38.578 27.635 40.003 27.5C56.5843 28.185 56.583 51.815 40.003 52.5C36.6889 52.4964 33.5116 51.1782 31.1682 48.8348C28.8248 46.4914 27.5066 43.3141 27.503 40C27.6305 38.55 27.5468 34.6962 29.748 35.2437C30.0612 35.3517 30.3187 35.5795 30.464 35.8771C30.6093 36.1748 30.6305 36.518 30.523 36.8313C30.1748 37.8513 29.9991 38.9222 30.003 40C30.5043 53.2463 49.503 53.2463 50.003 40C49.9997 37.3489 48.9451 34.8072 47.0704 32.9326C45.1958 31.0579 42.6542 30.0033 40.003 30Z" fill="#055EC7"/>
<path d="M28.0333 20.9188C27.9536 20.7751 27.903 20.6172 27.8844 20.454C27.8657 20.2909 27.8795 20.1256 27.9247 19.9677C27.97 19.8098 28.046 19.6624 28.1482 19.5339C28.2505 19.4054 28.3771 19.2983 28.5208 19.2188C32.0351 17.2737 35.9854 16.2523 40.002 16.25C71.5045 17.5525 71.5045 62.4488 40.002 63.75C35.8706 63.7525 31.81 62.6765 28.2219 60.6286C24.6338 58.5806 21.6423 55.6316 19.5433 52.0731C17.4443 48.5146 16.3105 44.4698 16.2539 40.3387C16.1973 36.2077 17.22 32.1334 19.2208 28.5188C19.3816 28.2287 19.651 28.0143 19.9698 27.9229C20.2886 27.8315 20.6307 27.8705 20.9208 28.0312C21.2109 28.192 21.4252 28.4615 21.5166 28.7803C21.608 29.0991 21.5691 29.4412 21.4083 29.7313C13.4833 43.4713 24.127 61.525 40.002 61.25C45.636 61.2437 51.0373 59.0029 55.0211 55.0191C59.0049 51.0353 61.2457 45.6339 61.252 40C61.5245 24.1263 43.4758 13.4812 29.7333 21.4063C29.5897 21.4863 29.4318 21.5371 29.2686 21.5559C29.1053 21.5747 28.9399 21.5611 28.782 21.5158C28.624 21.4705 28.4765 21.3944 28.3481 21.292C28.2196 21.1895 28.1126 21.0627 28.0333 20.9188Z" fill="#055EC7"/>
<path d="M25.5977 17.3724L25.1389 23.3687L40.8864 39.1162C41.1141 39.352 41.2401 39.6677 41.2373 39.9955C41.2344 40.3232 41.1029 40.6367 40.8712 40.8685C40.6394 41.1002 40.3259 41.2317 39.9982 41.2345C39.6704 41.2374 39.3547 41.1114 39.1189 40.8837L23.3714 25.1362L17.3752 25.5949C17.1955 25.6086 17.0151 25.5833 16.8461 25.5207C16.6772 25.4582 16.5238 25.3598 16.3964 25.2325L7.29891 16.1349C7.13353 15.9645 7.01974 15.7508 6.97067 15.5184C6.9216 15.2861 6.93927 15.0446 7.02162 14.8219C7.10397 14.5991 7.24765 14.4042 7.43607 14.2597C7.62448 14.1151 7.84994 14.0268 8.08641 14.0049L13.5864 13.5837L14.0077 8.0837C14.0295 7.84723 14.1178 7.62177 14.2624 7.43335C14.4069 7.24494 14.6018 7.10126 14.8246 7.0189C15.0473 6.93655 15.2888 6.91889 15.5212 6.96796C15.7535 7.01703 15.9672 7.13082 16.1377 7.2962L25.2352 16.3937C25.3627 16.521 25.4611 16.6744 25.5237 16.8433C25.5863 17.0123 25.6115 17.1928 25.5977 17.3724ZM16.2927 10.9862C15.7927 16.8074 16.7777 15.7824 10.9889 16.2899L17.7577 23.0587L22.6839 22.6812L23.0614 17.7562L16.2927 10.9862Z" fill="#055EC7"/>
</svg>
