<svg width="80" height="80" viewBox="0 0 80 80" fill="none" xmlns="http://www.w3.org/2000/svg">
<path d="M39.9992 17.686C28.2398 17.686 18.6727 27.2531 18.6727 39.0125C18.6727 44.5453 20.782 49.7906 24.6117 53.7813C27.2977 56.5735 28.6039 59.8188 28.6039 63.7V70.2157C28.6039 72.036 29.8492 73.5719 31.5336 74.0156C32.2414 77.4438 35.2867 80 38.8758 80H41.2273C44.832 80 47.8836 77.4281 48.5758 73.9844C50.2008 73.5047 51.3914 71.9969 51.3914 70.2157V63.7C51.3914 59.8219 52.6977 56.5781 55.3836 53.7797C59.2149 49.786 61.3258 44.5422 61.3258 39.0125C61.3258 27.2531 51.7586 17.686 39.9992 17.686ZM48.893 64.4172V66.7828H31.1008V64.4172H48.893ZM36.6508 45.8016H35.2961C34.5492 45.8016 33.9414 45.1938 33.9414 44.4469C33.9414 43.7 34.5492 43.0922 35.2961 43.0922C36.0305 43.0922 36.6508 43.7125 36.6508 44.4469V45.8016ZM39.1492 48.3H40.8492V61.9203H39.1492V48.3ZM41.2258 77.5016H38.8742C36.7086 77.5016 34.8414 76.1047 34.1555 74.1438H45.9477C45.2633 76.1047 43.3961 77.5016 41.2258 77.5016ZM47.4664 71.6469H32.532C31.743 71.6469 31.1008 71.0047 31.1008 70.2157V69.2813H48.893V70.2157C48.893 71.0047 48.2539 71.6469 47.4664 71.6469ZM53.582 52.05C50.8899 54.8547 49.3461 58.1672 48.9805 61.9203H43.3492V48.3H44.7039C46.8289 48.3 48.557 46.5719 48.557 44.4469C48.557 42.3219 46.8274 40.5938 44.7024 40.5938C42.5774 40.5938 40.8492 42.3219 40.8492 44.4469V45.8016H39.1492V44.4469C39.1492 42.3219 37.4211 40.5938 35.2961 40.5938C33.1711 40.5938 31.443 42.3219 31.443 44.4469C31.443 46.5719 33.1711 48.3 35.2961 48.3H36.6508V61.9203H31.0148C30.6492 58.1641 29.1055 54.8516 26.4133 52.0516C23.0336 48.5281 21.1711 43.8985 21.1711 39.0125C21.1711 28.6313 29.618 20.1844 39.9992 20.1844C50.3805 20.1844 58.8274 28.6313 58.8274 39.0125C58.8274 43.8938 56.9649 48.525 53.582 52.05ZM43.3477 45.8016V44.4469C43.3477 43.7 43.9555 43.0922 44.7024 43.0922C45.4367 43.0922 46.057 43.7125 46.057 44.4469C46.057 45.1938 45.4492 45.8016 44.7024 45.8016H43.3477ZM67.5852 11.4266C67.8193 11.6607 67.9508 11.9783 67.9508 12.3094C67.9508 12.6405 67.8193 12.9581 67.5852 13.1922L61.6945 19.0828C61.4508 19.3266 61.1305 19.4485 60.8117 19.4485C60.493 19.4485 60.1727 19.3266 59.9289 19.0828C59.6948 18.8487 59.5633 18.5311 59.5633 18.2C59.5633 17.8689 59.6948 17.5514 59.9289 17.3172L65.8195 11.4266C65.9353 11.3103 66.0729 11.2181 66.2244 11.1551C66.3759 11.0922 66.5383 11.0598 66.7024 11.0598C66.8664 11.0598 67.0288 11.0922 67.1803 11.1551C67.3318 11.2181 67.4694 11.3103 67.5852 11.4266ZM38.7508 9.57659V1.25002C38.7508 0.559399 39.3102 0.00158691 39.9992 0.00158691C40.6883 0.00158691 41.2477 0.560962 41.2477 1.25002V9.57659C41.2477 10.2672 40.6883 10.825 39.9992 10.825C39.3102 10.825 38.7508 10.2656 38.7508 9.57659ZM79.0117 39.0125C79.0117 39.7016 78.4524 40.261 77.7633 40.261H69.4367C68.7461 40.261 68.1883 39.7016 68.1883 39.0125C68.1883 38.3235 68.7477 37.7641 69.4367 37.7641H77.7633C78.4524 37.7641 79.0117 38.3219 79.0117 39.0125ZM67.5852 64.8313C67.8171 65.0659 67.9468 65.3828 67.9459 65.7127C67.945 66.0426 67.8136 66.3588 67.5804 66.5922C67.3472 66.8256 67.0312 66.9572 66.7013 66.9584C66.3714 66.9596 66.0544 66.8302 65.8195 66.5985L59.9461 60.7297C59.83 60.6137 59.7379 60.476 59.6751 60.3244C59.6122 60.1727 59.5799 60.0102 59.5799 59.8461C59.5799 59.682 59.6122 59.5195 59.6751 59.3679C59.7379 59.2163 59.83 59.0785 59.9461 58.9625C60.1803 58.7284 60.4978 58.5969 60.8289 58.5969C61.16 58.5969 61.4776 58.7284 61.7117 58.9625L67.5852 64.8313ZM12.4133 13.1922C12.1842 12.957 12.057 12.6411 12.0592 12.3128C12.0613 11.9845 12.1927 11.6703 12.4248 11.4381C12.657 11.206 12.9712 11.0746 13.2995 11.0725C13.6278 11.0703 13.9437 11.1975 14.1789 11.4266L20.0695 17.3172C20.2986 17.5524 20.4258 17.8683 20.4237 18.1966C20.4215 18.5249 20.2901 18.8391 20.058 19.0713C19.8258 19.3034 19.5116 19.4348 19.1833 19.437C18.855 19.4391 18.5391 19.3119 18.3039 19.0828L12.4133 13.1922ZM11.8117 39.0125C11.8117 39.7016 11.2523 40.261 10.5633 40.261H2.23672C1.54609 40.261 0.988281 39.7016 0.988281 39.0125C0.988281 38.3235 1.54766 37.7641 2.23672 37.7641H10.5633C11.2523 37.7641 11.8117 38.3219 11.8117 39.0125ZM20.0477 58.9641C20.2818 59.1982 20.4133 59.5158 20.4133 59.8469C20.4133 60.178 20.2818 60.4956 20.0477 60.7297L14.1789 66.5985C13.9352 66.8422 13.6148 66.9641 13.2961 66.9641C12.9773 66.9641 12.657 66.8422 12.4133 66.5985C12.1792 66.3643 12.0477 66.0468 12.0477 65.7156C12.0477 65.3845 12.1792 65.067 12.4133 64.8328L18.282 58.9641C18.5162 58.73 18.8337 58.5985 19.1648 58.5985C19.496 58.5985 19.8135 58.73 20.0477 58.9641Z" fill="#055EC7"/>
</svg>
