<svg width="48" height="48" viewBox="0 0 48 48" fill="none" xmlns="http://www.w3.org/2000/svg">
<path d="M24.0003 10.6116C16.9447 10.6116 11.2044 16.3519 11.2044 23.4075C11.2044 26.7272 12.47 29.8744 14.7678 32.2688C16.3794 33.9441 17.1631 35.8913 17.1631 38.22V42.1294C17.1631 43.2216 17.9103 44.1432 18.9209 44.4094C19.3456 46.4663 21.1728 48 23.3263 48H24.7372C26.9 48 28.7309 46.4569 29.1463 44.3907C30.1213 44.1029 30.8356 43.1982 30.8356 42.1294V38.22C30.8356 35.8932 31.6194 33.9469 33.2309 32.2679C35.5297 29.8716 36.7963 26.7254 36.7963 23.4075C36.7963 16.3519 31.0559 10.6116 24.0003 10.6116ZM29.3366 38.6503V40.0697H18.6613V38.6503H29.3366ZM21.9913 27.481H21.1784C20.7303 27.481 20.3656 27.1163 20.3656 26.6682C20.3656 26.22 20.7303 25.8554 21.1784 25.8554C21.6191 25.8554 21.9913 26.2275 21.9913 26.6682V27.481ZM23.4903 28.98H24.5103V37.1522H23.4903V28.98ZM24.7363 46.501H23.3253C22.0259 46.501 20.9056 45.6628 20.4941 44.4863H27.5694C27.1588 45.6628 26.0384 46.501 24.7363 46.501ZM28.4806 42.9882H19.52C19.0466 42.9882 18.6613 42.6029 18.6613 42.1294V41.5688H29.3366V42.1294C29.3366 42.6029 28.9531 42.9882 28.4806 42.9882ZM32.15 31.23C30.5347 32.9128 29.6084 34.9004 29.3891 37.1522H26.0103V28.98H26.8231C28.0981 28.98 29.135 27.9432 29.135 26.6682C29.135 25.3932 28.0972 24.3563 26.8222 24.3563C25.5472 24.3563 24.5103 25.3932 24.5103 26.6682V27.481H23.4903V26.6682C23.4903 25.3932 22.4534 24.3563 21.1784 24.3563C19.9034 24.3563 18.8666 25.3932 18.8666 26.6682C18.8666 27.9432 19.9034 28.98 21.1784 28.98H21.9913V37.1522H18.6097C18.3903 34.8985 17.4641 32.911 15.8488 31.231C13.8209 29.1169 12.7034 26.3391 12.7034 23.4075C12.7034 17.1788 17.7716 12.1107 24.0003 12.1107C30.2291 12.1107 35.2972 17.1788 35.2972 23.4075C35.2972 26.3363 34.1797 29.115 32.15 31.23ZM26.0094 27.481V26.6682C26.0094 26.22 26.3741 25.8554 26.8222 25.8554C27.2628 25.8554 27.635 26.2275 27.635 26.6682C27.635 27.1163 27.2703 27.481 26.8222 27.481H26.0094ZM40.5519 6.85598C40.6923 6.99647 40.7713 7.187 40.7713 7.38566C40.7713 7.58433 40.6923 7.77486 40.5519 7.91535L37.0175 11.4497C36.8713 11.596 36.6791 11.6691 36.4878 11.6691C36.2966 11.6691 36.1044 11.596 35.9581 11.4497C35.8177 11.3092 35.7388 11.1187 35.7388 10.92C35.7388 10.7214 35.8177 10.5308 35.9581 10.3904L39.4925 6.85598C39.562 6.78622 39.6445 6.73087 39.7354 6.69311C39.8263 6.65534 39.9238 6.6359 40.0222 6.6359C40.1206 6.6359 40.2181 6.65534 40.309 6.69311C40.3999 6.73087 40.4824 6.78622 40.5519 6.85598ZM23.2513 5.74598V0.750039C23.2513 0.335664 23.5869 0.000976562 24.0003 0.000976562C24.4138 0.000976562 24.7494 0.336602 24.7494 0.750039V5.74598C24.7494 6.16035 24.4138 6.49504 24.0003 6.49504C23.5869 6.49504 23.2513 6.15941 23.2513 5.74598ZM47.4078 23.4075C47.4078 23.821 47.0722 24.1566 46.6588 24.1566H41.6628C41.2484 24.1566 40.9138 23.821 40.9138 23.4075C40.9138 22.9941 41.2494 22.6585 41.6628 22.6585H46.6588C47.0722 22.6585 47.4078 22.9932 47.4078 23.4075ZM40.5519 38.8988C40.691 39.0396 40.7688 39.2297 40.7683 39.4276C40.7678 39.6256 40.6889 39.8153 40.549 39.9553C40.4091 40.0954 40.2195 40.1744 40.0215 40.1751C39.8236 40.1758 39.6334 40.0981 39.4925 39.9591L35.9684 36.4379C35.8988 36.3683 35.8435 36.2856 35.8058 36.1946C35.7681 36.1037 35.7487 36.0062 35.7487 35.9077C35.7487 35.8092 35.7681 35.7117 35.8058 35.6208C35.8435 35.5298 35.8988 35.4471 35.9684 35.3775C36.1089 35.2371 36.2995 35.1582 36.4981 35.1582C36.6968 35.1582 36.8873 35.2371 37.0278 35.3775L40.5519 38.8988ZM7.44875 7.91535C7.31131 7.77424 7.23498 7.58468 7.23628 7.38771C7.23757 7.19073 7.3164 7.00219 7.45568 6.86291C7.59497 6.72362 7.78351 6.6448 7.98048 6.6435C8.17746 6.6422 8.36702 6.71854 8.50813 6.85598L12.0425 10.3904C12.1799 10.5315 12.2563 10.721 12.255 10.918C12.2537 11.115 12.1749 11.3035 12.0356 11.4428C11.8963 11.5821 11.7077 11.6609 11.5108 11.6622C11.3138 11.6635 11.1242 11.5872 10.9831 11.4497L7.44875 7.91535ZM7.08781 23.4075C7.08781 23.821 6.75219 24.1566 6.33875 24.1566H1.34281C0.928438 24.1566 0.59375 23.821 0.59375 23.4075C0.59375 22.9941 0.929375 22.6585 1.34281 22.6585H6.33875C6.75219 22.6585 7.08781 22.9932 7.08781 23.4075ZM12.0294 35.3785C12.1698 35.519 12.2488 35.7095 12.2488 35.9082C12.2488 36.1068 12.1698 36.2974 12.0294 36.4379L8.50813 39.9591C8.36188 40.1054 8.16969 40.1785 7.97844 40.1785C7.78719 40.1785 7.595 40.1054 7.44875 39.9591C7.30828 39.8186 7.22937 39.6281 7.22937 39.4294C7.22937 39.2307 7.30828 39.0402 7.44875 38.8997L10.97 35.3785C11.1105 35.238 11.301 35.1591 11.4997 35.1591C11.6984 35.1591 11.8889 35.238 12.0294 35.3785Z" fill="#055EC7"/>
</svg>
