<svg width="99" height="99" viewBox="0 0 99 99" fill="none" xmlns="http://www.w3.org/2000/svg">
<g clip-path="url(#clip0_29_263)" filter="url(#filter0_d_29_263)">
<path d="M49.5 4C26.5837 4 8 22.5837 8 45.5C8 68.4163 26.5837 87 49.5 87C72.4163 87 91 68.4163 91 45.5C91 22.5837 72.4163 4 49.5 4ZM50.3796 69.6624C50.379 69.6624 50.3803 69.6624 50.3796 69.6624H50.3694C46.2123 69.6608 42.1273 68.6184 38.4994 66.64L25.3324 70.0931L28.8563 57.2257C26.6825 53.4604 25.5388 49.1886 25.5407 44.8123C25.5464 31.1217 36.689 19.9837 50.3796 19.9837C57.0235 19.9861 63.2603 22.5722 67.9495 27.2653C72.6393 31.9588 75.2203 38.1975 75.2178 44.8319C75.212 58.5232 64.0683 69.6626 50.3794 69.6626L50.3796 69.6624Z" fill="black"/>
<path d="M50.3882 24.1777C39.0005 24.1777 29.7396 33.435 29.7344 44.8143C29.7332 48.7138 30.8249 52.5114 32.8911 55.7972L33.3818 56.578L31.296 64.194L39.1096 62.1449L39.8638 62.592C43.033 64.4726 46.6667 65.4675 50.3711 65.4688H50.3792C61.7579 65.4688 71.0191 56.2107 71.0241 44.8308C71.0261 39.3158 68.8807 34.1309 64.9831 30.2302C61.0855 26.3294 55.9017 24.1795 50.3882 24.1777ZM62.5312 53.6873C62.0138 55.1361 59.5346 56.4591 58.3423 56.6377C57.2727 56.7971 55.9202 56.8637 54.4334 56.3918C53.5315 56.1057 52.3759 55.7239 50.8948 55.0849C44.6693 52.3974 40.6033 46.1309 40.293 45.7166C39.9828 45.3025 37.7588 42.3523 37.7588 39.2982C37.7588 36.2447 39.362 34.7434 39.9309 34.1227C40.5001 33.5015 41.1727 33.3463 41.586 33.3463C41.9996 33.3463 42.4138 33.3502 42.7754 33.3679C43.1565 33.3868 43.6682 33.2229 44.1717 34.4329C44.689 35.6755 45.9302 38.7288 46.0854 39.0393C46.2405 39.35 46.3436 39.7124 46.1372 40.1265C45.9302 40.5406 45.2424 41.4341 44.5859 42.2486C44.3103 42.5898 43.9514 42.8937 44.3135 43.5149C44.675 44.1355 45.9213 46.1675 47.766 47.8128C50.1368 49.9265 52.1364 50.5813 52.7571 50.8922C53.3771 51.2025 53.7392 51.1505 54.1015 50.7371C54.463 50.3229 55.6529 48.9254 56.0663 48.3041C56.48 47.6829 56.894 47.7867 57.4627 47.9939C58.032 48.2002 61.0829 49.7017 61.7035 50.012C62.324 50.3229 62.7377 50.478 62.8927 50.7371C63.0485 50.996 63.0485 52.2379 62.5312 53.6873Z" fill="black"/>
</g>
<defs>
<filter id="filter0_d_29_263" x="0.2" y="0.2" width="98.6" height="98.6" filterUnits="userSpaceOnUse" color-interpolation-filters="sRGB">
<feFlood flood-opacity="0" result="BackgroundImageFix"/>
<feColorMatrix in="SourceAlpha" type="matrix" values="0 0 0 0 0 0 0 0 0 0 0 0 0 0 0 0 0 0 127 0" result="hardAlpha"/>
<feOffset dy="4"/>
<feGaussianBlur stdDeviation="3.9"/>
<feComposite in2="hardAlpha" operator="out"/>
<feColorMatrix type="matrix" values="0 0 0 0 0 0 0 0 0 0 0 0 0 0 0 0 0 0 0.25 0"/>
<feBlend mode="normal" in2="BackgroundImageFix" result="effect1_dropShadow_29_263"/>
<feBlend mode="normal" in="SourceGraphic" in2="effect1_dropShadow_29_263" result="shape"/>
</filter>
<clipPath id="clip0_29_263">
<rect width="83" height="83" fill="white" transform="translate(8 4)"/>
</clipPath>
</defs>
</svg>
